<!-- // M = moveto 可以理解为 把画笔移动到这个坐标开始绘制，表示路径开始的位置（X,Y）

<path d="M10 10" />

你看不到任何东西，因为只是移动画笔到10 10，并没有进行绘制。

L = lineto 从当前位置画一条直线到这个坐标（X,Y）

<path d="M40 40 L 220 40"/>
复制
demo

V = vertical lineto 从当前位置画一条垂直线到坐标（X,Y）

<path d="M40 40 L 220 40 V 220"/>
复制
demo

H = horizontal lineto 从当前位置画一条水平线到坐标（X,Y）

<path d="M40 40 L 220 40 V 220 H 40" />
复制
demo

Z = closepath 闭合路径

<path d="M40 40 L 220 40 V 220 H 40 Z" />
复制
demo

A = elliptical Arc 圆弧，他是椭圆形或者说圆形的一部分

A 45 45, 0, 0, 0, 125 125

弧形命令A的前两个参数分别是x轴半径和y轴半径，第三个参数表示弧形的旋转角度，第四个参数表示弧形角度的大小，决定弧线是大于还是小于180度，0表示小于，1表示大于。第五个参数表示弧线的方向，0表示从起点到终点沿逆时针画弧，1表示从起点到终点沿顺时针画弧。最后两个数字是一个坐标，表示弧形的结束点。

demo

demo里清楚的展示了可能的四种情况，上边两个图形分别是小角度逆时针，大角度逆时针，下边两个是小角度顺时针，大角度顺时针。

为了更直观的观察角度和方向，我闭合了弧形，让他成为一个饼图。

(*^__^*) 到这里是不是就可以手绘饼图了。

Q = quadratic Belzier curve
 T = smooth quadratic Belzier curveto

二次贝塞尔曲线Q和延长二次贝塞尔曲线的参数T。

二次贝塞尔曲线的参数是两个坐标点：x1 y1, x y

第一个点是曲线的控制点，第二个点是曲线的结束点，控制点用来决定起点和终点的曲线斜率。

<path d="M10 80 Q 95 10 180 80" style="stroke:#000; fill:none"/>
复制
T命令前面必须是一个Q命令，或者是另一个T命令，才能达到这种效果。如果T单独使用，那么控制点就会被认为和终点是同一个点，所以画出来的将是一条直线

<path d="M10 180 Q 95 110 180 180 T 290 180" style="stroke:#000; fill:none"/>
复制
demo

C = curveto
 S = smooth curveto

C命令是三次贝塞尔曲线，S是他的延长参数。C比Q多出一个控制点参数：C x1 y1, x2 y2, x y

S命令可以用来创建与之前那些曲线一样的贝塞尔曲线，就像上面的T。如果S命令跟在一个C命令或者另一个S命令的后面，它的第一个控制点，就会被假设成前一个控制点的对称点。如果S命令单独使用，前面没有C命令或者另一个S命令，那么它的两个控制点就会被假设为同一个点。
transform="rotate(15)"
-->



<svg xmlns="http://www.w3.org/2000/svg" width="500" height="500">
  <circle cx="250" cy="250" r="120" style="fill:rgb(255,255,255, 0); stroke:rgb(255,255,255)"></circle>
  <!-- <polyline points="167.2 50, 250 250, 332.8 50" style="fill:rgb(255,255,255, 0); stroke:rgb(255,255,255)"></polyline>
  <line x1="50" y1="167.2" x2="250" y2="250" style="fill:rgb(255,255,255, 0); stroke:rgb(255,255,255)"></line> -->
  <!-- <path d="M50 250 L 50 167.2 L 167.2 50 L 250 50 L 332.8 50 L 450 167.2 L 450 250 L 450 332.8 L 332.8 450 L 250 450 L 167.2 450 L 50 332.8 Z" style="fill:rgb(255,255,255, 0); stroke:rgb(255,255,255)" /> -->
  <path d="M50 167.2 L 167.2 50 L 332.8 50 L 450 167.2 L 450 332.8 L 332.8 450 L 167.2 450 L 50 332.8 Z" style="fill:rgb(255,255,255, 0); stroke:rgb(255,255,255)" />
 </svg>